<mxfile host="app.diagrams.net" modified="2024-06-02T09:40:12.491Z" agent="Mozilla/5.0 (Windows NT 10.0; Win64; x64; rv:126.0) Gecko/20100101 Firefox/126.0" version="24.4.13" etag="kaRxqPFRMGYfLeypXJKy" type="github">
  <diagram name="Page-1" id="mvXrv4PiX0MS1sBVxAHh">
    <mxGraphModel>
      <root>
        <mxCell id="0" />
        <mxCell id="1" parent="0" />
      </root>
    </mxGraphModel>
  </diagram>
</mxfile>
